<svg width="64" height="64" viewBox="0 0 64 64" xmlns="http://www.w3.org/2000/svg">
  <!-- Van body -->
  <rect x="8" y="28" width="48" height="24" rx="4" fill="currentColor" opacity="0.8"/>
  
  <!-- Van windshield -->
  <polygon points="8,28 16,20 48,20 56,28" fill="currentColor" opacity="0.6"/>
  
  <!-- Van wheels -->
  <circle cx="18" cy="54" r="4" fill="currentColor"/>
  <circle cx="46" cy="54" r="4" fill="currentColor"/>
  
  <!-- Cooling unit on top -->
  <rect x="24" y="16" width="16" height="8" rx="2" fill="#00bcd4" opacity="0.9"/>
  
  <!-- Cooling vents -->
  <line x1="26" y1="18" x2="26" y2="22" stroke="white" stroke-width="1" opacity="0.7"/>
  <line x1="29" y1="18" x2="29" y2="22" stroke="white" stroke-width="1" opacity="0.7"/>
  <line x1="32" y1="18" x2="32" y2="22" stroke="white" stroke-width="1" opacity="0.7"/>
  <line x1="35" y1="18" x2="35" y2="22" stroke="white" stroke-width="1" opacity="0.7"/>
  <line x1="38" y1="18" x2="38" y2="22" stroke="white" stroke-width="1" opacity="0.7"/>
  
  <!-- Cool air effect -->
  <path d="M 20 12 Q 24 8 28 12 Q 32 8 36 12 Q 40 8 44 12" 
        stroke="#00bcd4" stroke-width="2" fill="none" opacity="0.6"/>
  
  <!-- Temperature indicator -->
  <circle cx="50" cy="36" r="3" fill="#00e676" opacity="0.8"/>
  <text x="50" y="39" text-anchor="middle" font-family="Arial" font-size="8" fill="white">°C</text>
</svg>
